<svg xmlns="http://www.w3.org/2000/svg" width="35.053" height="27.076" viewBox="0 0 35.053 27.076"><defs><style>.a{fill:#fff;}</style></defs><path class="a" d="M958.336,8088.768l-7.39,6.649q-3.641,3.276-7.279,6.553a1.649,1.649,0,0,1-1.874.429,1.67,1.67,0,0,1-.974-1.708q0-4.548,0-9.095a1.931,1.931,0,0,1,.68-1.518q7.8-7.014,15.6-14.038a1.641,1.641,0,0,1,2.515.019q7.784,7,15.567,14.006a1.933,1.933,0,0,1,.69,1.514c0,3.047.005,6.094-.005,9.141a1.6,1.6,0,0,1-2.174,1.694,2.6,2.6,0,0,1-.722-.5q-7.1-6.374-14.182-12.756C958.65,8089.036,958.509,8088.918,958.336,8088.768Z" transform="translate(-940.817 -8075.463)"/></svg>