<svg xmlns="http://www.w3.org/2000/svg" width="361.44" height="137.144" viewBox="0 0 361.44 137.144"><defs><style>.a{fill:#fff;}</style></defs><g transform="translate(-1157.72 -3617.294)"><path class="a" d="M1310.363,3679.315v6.761h10.122v3.492h-10.122v8.506h-3.893v-22.219h15.3v3.46Z"/><path class="a" d="M1326.979,3686.965a11.29,11.29,0,1,1,11.29,11.427A11.04,11.04,0,0,1,1326.979,3686.965Zm18.655,0c0-4.54-3.143-7.809-7.365-7.809s-7.367,3.269-7.367,7.809,3.143,7.808,7.367,7.808S1345.634,3691.5,1345.634,3686.965Z"/><path class="a" d="M1370.573,3698.074l-4.282-6.507a6.792,6.792,0,0,1-.808.032h-4.732v6.475h-3.893v-22.219h8.625c5.509,0,8.923,2.984,8.923,7.9a7.108,7.108,0,0,1-4.462,7.014l4.821,7.3Zm-5.271-18.727h-4.551v8.856h4.551c3.414,0,5.182-1.651,5.182-4.444S1368.716,3679.347,1365.3,3679.347Z"/><path class="a" d="M1401.172,3698.074l-.03-14.727-6.887,12.188h-1.738l-6.887-12v14.537h-3.713v-22.219h3.2l8.325,14.728,8.177-14.728h3.2l.03,22.219Z"/><path class="a" d="M1427.276,3692.932H1416.8l-2.066,5.142h-4.013l9.433-22.219h3.833l9.463,22.219h-4.073Zm-1.288-3.237-3.953-9.713-3.922,9.713Z"/><path class="a" d="M1442.484,3679.347h-6.948v-3.492h17.788v3.492h-6.948v18.727h-3.892Z"/><path class="a" d="M1459.428,3675.855h3.892v22.219h-3.892Z"/><path class="a" d="M1470.655,3686.965a11.29,11.29,0,1,1,11.289,11.427A11.04,11.04,0,0,1,1470.655,3686.965Zm18.655,0c0-4.54-3.144-7.809-7.366-7.809s-7.367,3.269-7.367,7.809,3.144,7.808,7.367,7.808S1489.31,3691.5,1489.31,3686.965Z"/><path class="a" d="M1519.16,3675.855v22.219h-3.2l-11.56-15.045v15.045h-3.862v-22.219h3.2l11.56,15.045v-15.045Z"/><path class="a" d="M1206.775,3693.964c0,6.164-4.514,9.729-13.168,9.729h-17.024v-35.655h16.084c8.23,0,12.463,3.718,12.463,9.27a8.681,8.681,0,0,1-4.374,7.845C1204.425,3686.426,1206.775,3689.482,1206.775,3693.964Zm-22.62-19.712v8.405h7.571c3.716,0,5.738-1.426,5.738-4.228s-2.022-4.177-5.738-4.177Zm14.955,18.846c0-3-2.117-4.431-6.067-4.431h-8.888v8.812h8.888C1196.993,3697.479,1199.11,3696.154,1199.11,3693.1Z"/><path class="a" d="M1218.015,3668.038h7.619v35.655h-7.619Z"/><path class="a" d="M1268.853,3703.693l-.048-21.393-9.687,17.624h-3.434l-9.641-17.166v20.935h-7.149v-35.655h6.3l12.321,22.157,12.134-22.157h6.255l.094,35.655Z"/><path class="a" d="M1294.864,3754.438H1157.72V3617.294h137.144Zm-129.387-7.758h121.63V3625.051h-121.63Z"/></g></svg>