<svg xmlns="http://www.w3.org/2000/svg" width="483.574" height="112.005" viewBox="0 0 483.574 112.005"><defs><style>.a{fill:#fff;}</style></defs><g transform="translate(840.147 -1792.423)"><path class="a" d="M-740.09,1845.076v-11.888c.14-.082.277-.233.414-.233,6.949.021,13.9-.053,20.847.123a21.922,21.922,0,0,1,13.169,5.155c1.566,1.238,3.124,2.5,4.588,3.855,5.15,4.774,11.108,5.863,17.811,4.257,7.629-1.829,14.564-5.2,21.281-9.124,1.229-.717,2.441-1.465,3.892-2.337l8.266,14.265c-1.4,1.208-2.611,2.359-3.928,3.376-7.413,5.725-15.641,9.243-25.172,9.2a2.491,2.491,0,0,0-1.541.382c-1.3,1.145-2.505,2.406-3.917,3.793,9.456,2.318,16.411,8.314,23.151,14.881-.6,2.4-1.186,4.742-1.773,7.085l.411.167c.959-1.546,1.872-3.123,2.888-4.631a13.161,13.161,0,0,1,7.921-5.81,6.783,6.783,0,0,1,6.2,1.612l-20.177,25.221c-1.942-2.041-3.695-4-5.569-5.831a107.294,107.294,0,0,0-16.614-13.715c-2.888-1.868-5.846-3.634-9.281-4.333-4.68-.953-9,.453-13.308,2.037-4.64,1.708-9.272,3.451-13.972,4.985a40.355,40.355,0,0,1-16.282,2.176,26.344,26.344,0,0,1-8.489-2.177v-6.625l-.467-.134c-.324.754-.654,1.505-.97,2.262-.8,1.914-1.5,3.876-2.412,5.733a11.3,11.3,0,0,1-4.083,4.616,6.721,6.721,0,0,1-6.8.414q5.63-14.048,11.27-28.121c3.084.786,5.905,1.624,8.778,2.211a32.287,32.287,0,0,0,15.2-.242,22.113,22.113,0,0,0,12.208-8.386,3.388,3.388,0,0,0,.414-3.758,15.068,15.068,0,0,0-7.1-7.51,27.569,27.569,0,0,0-11.52-2.938C-736.411,1845-738.082,1845.076-740.09,1845.076Z"/><path class="a" d="M-592.664,1852.6c10.239-.218,20.674,6.522,22.157,18.809,1.267,10.5-2.8,18.944-11.375,25.053a24.6,24.6,0,0,1-20.731,4.086c-11.105-2.671-17.494-12.595-16.5-23.5a26.469,26.469,0,0,1,21.7-23.931C-595.857,1852.812-594.248,1852.769-592.664,1852.6Zm-14.294,25.32c-.08,8.133,7.054,13.594,14.714,11.265a14.457,14.457,0,0,0,9.833-13.616c-.186-8.184-7.79-13.5-15.339-10.725A14.37,14.37,0,0,0-606.958,1877.923Z"/><path class="a" d="M-711.184,1808.331c.8,1.162,1.5,2.167,2.192,3.173l.563-.125c-.48-3.589-.923-7.2,1.154-10.388a19.182,19.182,0,0,1,3.268-4.083,15.058,15.058,0,0,1,4.667-2.828,14.716,14.716,0,0,1,15.054,2.677l-2.64,5.3.28.175a41.021,41.021,0,0,1,4.549-3.095c1.713-.873,3.607-.513,5.375.112a8.536,8.536,0,0,1,4.422,3.512c2.22,3.45,2.261,9.29-3.765,12.9l1.482,5.6-28.076,10.384-2.315-7.145c-5.016-.006-8.773-1.885-10.086-7.033C-715.941,1814.014-714.4,1810.547-711.184,1808.331Z"/><path class="a" d="M-572.5,1803.4l-7.361,8.93c-.978-.521-1.871-1-2.767-1.474-4.887-2.578-9.614-2.184-13.924,1.155-4.549,3.524-6.482,8.3-5.3,13.986,1.386,6.67,7.825,10.291,14.555,8.3a58.489,58.489,0,0,0,5.943-2.492l5.5,8.7c-.88.673-1.579,1.31-2.372,1.8-6.859,4.215-14.183,5.286-21.823,2.694-11.168-3.788-16.85-15.851-13.358-27.948a26.79,26.79,0,0,1,24.285-19.271,22.771,22.771,0,0,1,12.47,2.753C-575.28,1801.291-574.051,1802.311-572.5,1803.4Z"/><path class="a" d="M-404.74,1842.674a16.365,16.365,0,0,1-8.276,3.541,16.032,16.032,0,0,1-17.55-12.943c-2.361-11.3,6.2-22.758,17.723-23.748a12.373,12.373,0,0,1,9.808,2.91,11.808,11.808,0,0,0,1.136.773c.96-2.842,3.144-3.2,5.6-3.07,1.341.068,2.689.012,4.346.012-1.024,11.89-2.027,23.531-3.047,35.374-2.282,0-4.343.069-6.4-.022C-403,1845.431-403.894,1844.234-404.74,1842.674Zm-14.96-13.887a6.861,6.861,0,0,0,7.1,7.125,8.756,8.756,0,0,0,8.547-8.863,7,7,0,0,0-7.157-7.125A8.6,8.6,0,0,0-419.7,1828.787Z"/><path class="a" d="M-414.439,1868.046c.206-.359.439-.758.665-1.16a2.935,2.935,0,0,1,2.5-1.613c.8-.047,1.6-.069,2.393-.076,1.344-.012,2.688,0,4.357,0-1.012,11.8-2,23.354-3.015,35.139a23.1,23.1,0,0,1-6.994-.09c-1.1-.251-1.989-1.413-3.137-2.287a5.336,5.336,0,0,0-.773.475c-7.158,5.773-21.915,3.283-24.668-10.317-2.31-11.407,6.163-22.573,17.763-23.681a12.385,12.385,0,0,1,9.6,2.84c.3.256.633.476.958.7C-414.74,1868.016-414.651,1868.007-414.439,1868.046Zm-2.251,14.254c.052-4.3-2.885-7.4-7.04-7.427a8.607,8.607,0,0,0-8.519,8.825,6.7,6.7,0,0,0,6.788,7.113A8.483,8.483,0,0,0-416.69,1882.3Z"/><path class="a" d="M-551.213,1809.538c9.408-.01,16.394,5.534,17.575,14.333.983,7.328-1.825,13.371-7.451,17.991-5.827,4.785-12.56,5.807-19.65,3.547-8.834-2.817-13.268-12.417-10.271-21.591C-568.69,1816.717-561.487,1809.294-551.213,1809.538Zm6.562,17.758a6.981,6.981,0,0,0-7.228-7.245,8.708,8.708,0,0,0-8.861,8.487,7.19,7.19,0,0,0,7.369,7.438A8.79,8.79,0,0,0-544.651,1827.3Z"/><path class="a" d="M-470.691,1810.222h8.72l1.239,3.729c1.266-.728,2.433-1.391,3.591-2.067a16.318,16.318,0,0,1,10.089-2.335c6.669.67,10.922,5.257,10.919,11.978,0,2.392-.2,4.788-.408,7.174-.477,5.483-1.015,10.96-1.523,16.393-2.216.63-8.906.535-10.808-.167,0-1.048-.077-2.156.013-3.251.375-4.535.845-9.063,1.18-13.6a15.732,15.732,0,0,0-.189-4.5,4.905,4.905,0,0,0-5.067-3.911,7.71,7.71,0,0,0-7.732,6.217c-.418,2.35-.538,4.756-.757,7.14-.338,3.657-.642,7.318-.971,10.976-.034.384-.139.761-.236,1.268H-473.7C-472.691,1833.546-471.7,1821.975-470.691,1810.222Z"/><path class="a" d="M-528.231,1865.224h11.118c-.259,3.088-.5,5.936-.736,8.783-.267,3.185-.553,6.369-.783,9.556a13.5,13.5,0,0,0,.063,2.87,4.9,4.9,0,0,0,4.669,4.368,7.537,7.537,0,0,0,8.383-6.752c.539-5.245.986-10.5,1.428-15.755.248-2.94.531-3.266,3.463-3.289,2.542-.02,5.084,0,7.935,0-1.014,11.863-2,23.439-3.017,35.3-2.582,0-5.034.075-7.475-.059-.524-.029-1.139-.728-1.476-1.266a13.608,13.608,0,0,1-.924-2.46c-.887.568-1.654,1.063-2.426,1.551-3.774,2.387-7.8,3.583-12.311,2.763-5.731-1.042-9.631-5.263-9.708-11.091-.053-3.985.3-7.98.568-11.963.254-3.746.636-7.484.973-11.224C-528.452,1866.166-528.341,1865.784-528.231,1865.224Z"/><path class="a" d="M-356.573,1813.508l-5.509,7.772c-2.089-.6-4.052-1.251-6.057-1.715a18.421,18.421,0,0,0-3.777-.376,2.792,2.792,0,0,0-1.529.564,1.3,1.3,0,0,0,.039,2.343,8.793,8.793,0,0,0,1.961.878c2.255.807,4.508,1.629,6.788,2.363,9.637,3.1,7.906,13.418,2.737,17.547a15.666,15.666,0,0,1-7.838,3.341,24.917,24.917,0,0,1-18-4.216,12.54,12.54,0,0,1-1.032-.906l5.124-7.139c2.428.77,4.752,1.585,7.122,2.228a18.455,18.455,0,0,0,4.228.638c1.189.036,2.478-.208,2.955-1.581.285-.821-.6-1.63-2.359-2.277-1.049-.386-2.13-.689-3.167-1.1-1.7-.681-3.427-1.339-5.068-2.154-7.323-3.64-7.166-11.913-1.778-16.423a17.354,17.354,0,0,1,11.782-4C-365.207,1809.377-360.967,1811.18-356.573,1813.508Z"/><path class="a" d="M-368.975,1868.252l-5.671,8c-2.5-.708-4.769-1.461-7.094-1.963a8.765,8.765,0,0,0-3.51.071,2.054,2.054,0,0,0-1.336,1.4c-.043.5.611,1.206,1.134,1.562a9.794,9.794,0,0,0,2.214.884c2.475.9,5.007,1.661,7.418,2.705,4.51,1.951,6.385,6.026,5.16,10.8-1.268,4.936-4.71,7.806-9.386,8.963-7.616,1.884-14.707.437-21.31-4.454,1.618-2.514,3.359-4.837,5.164-7.305,2.254.737,4.411,1.558,6.632,2.129a31.679,31.679,0,0,0,4.939.691,3.254,3.254,0,0,0,1.607-.357c1.412-.672,1.529-1.885.247-2.755a9.423,9.423,0,0,0-1.968-.851c-2.162-.822-4.332-1.623-6.5-2.443-.372-.141-.724-.337-1.083-.512-8.022-3.91-7.187-12.956-1.252-17.148A18.3,18.3,0,0,1-377.577,1865C-374.753,1865.766-372.073,1867.062-368.975,1868.252Z"/><path class="a" d="M-735.29,1823.137l3.532.266v4.23H-777.6v-4.185l3.332-.342c.134-.68.3-1.353.393-2.036a19.247,19.247,0,0,1,14.147-16.14c1.291-.334,2.631-.4,3.607-1.6.561-.689,1.414-.483,2.135.125a3.96,3.96,0,0,0,1.578.9c10.151,2.244,15.273,7.665,16.888,17.928C-735.487,1822.509-735.4,1822.728-735.29,1823.137Zm-32.3-1.109c2.363-8.414,1.723-7.721,7.666-14.163-6.068,1.561-9.658,8.491-9.893,14.163Z"/><path class="a" d="M-496.517,1814.053l-6.11,7.9c-.761-.43-1.417-.833-2.1-1.182-3.377-1.723-6.675-1.619-9.657.784a8.789,8.789,0,0,0-3.18,9.437,6.569,6.569,0,0,0,6.881,5.152,21.534,21.534,0,0,0,4.4-1.024,22.565,22.565,0,0,0,2.456-1.014,7.136,7.136,0,0,1,.649.774c1.33,2.181,2.645,4.37,4.1,6.787a18.793,18.793,0,0,1-2.191,1.783,19.845,19.845,0,0,1-17.052,1.989c-7.146-2.4-11.382-9.436-10.665-17.42A20.145,20.145,0,0,1-513,1809.906a18.378,18.378,0,0,1,12.815,1.62A40.678,40.678,0,0,1-496.517,1814.053Z"/><path class="a" d="M-540.35,1889.093c1.447,2.4,2.955,4.9,4.51,7.474a17.135,17.135,0,0,1-9.719,4.537,19.677,19.677,0,0,1-8.779-.5,16.316,16.316,0,0,1-11.506-16.4,20.367,20.367,0,0,1,24.981-19.353,12.893,12.893,0,0,1,7.422,4.282l-5.934,7.674c-1.077-.556-2.021-1.13-3.029-1.55a8.24,8.24,0,0,0-9.318,1.652,8.974,8.974,0,0,0-2.382,9.653,6.664,6.664,0,0,0,7.818,4.387C-544.359,1890.535-542.5,1889.782-540.35,1889.093Z"/><path class="a" d="M-454.726,1900.132h-11.167c.7-8.227,1.382-16.306,2.083-24.585l-4.245-.388c.316-3.286.62-6.437.94-9.76l4.144-.594c.261-2.61.514-5.141.793-7.939l11.4-2.787c-.259,3.684-.5,7.07-.759,10.816h6.622c-.291,3.595-.551,6.819-.833,10.317h-6.743C-453.249,1883.629-453.98,1891.8-454.726,1900.132Z"/><path class="a" d="M-482.324,1850.413c3.166,0,6.035,0,8.9,0,.544,0,1.088.054,1.988.1-1.336,16.629-2.853,33.1-4.292,49.641h-10.929C-485.211,1883.583-483.782,1867.162-482.324,1850.413Z"/><path class="a" d="M-765.664,1866.44c-1.631,4.51-3.113,8.611-4.69,12.976l-69.777-6.091-.016-.376Z"/><path class="a" d="M-482.446,1845.358h-11.1c1.014-11.681,2.02-23.25,3.02-34.77,1.908-.56,8.776-.611,11.134-.08C-480.4,1822.077-481.421,1833.671-482.446,1845.358Z"/><path class="a" d="M-765.208,1864.507l-49.675-6.207-.015-.541,54.336-6.813C-760.6,1852.855-763.339,1860.84-765.208,1864.507Z"/><path class="a" d="M-675.065,1826.141c1.826,4.9-1.1,12.889-8.417,15.443a13.223,13.223,0,0,1-16.831-7.817Z"/><path class="a" d="M-771.38,1882.231c-1.184,3.288-2.205,6.133-3.237,8.974-.216.6-.476,1.173-.8,1.955l-39.835-4.987-.022-.444Z"/><path class="a" d="M-763.186,1830.263c4.575-.374,9.042-.644,12.959,1.762,1.029-.746,1.757-1.636,2.649-1.853,2.4-.585,4.189.713,4.405,3.291.211,2.515.046,5.061.046,7.556C-750.011,1842.182-760.483,1836.565-763.186,1830.263Z"/><path class="a" d="M-648.7,1842.712l-7.008-8.742c1.383-2.315,3-4.027,6.125-3.23l-.377-2.727,4.169-3.135c1.364,1.869,2.822,3.563,3.933,5.46,1.751,2.993,1.27,6.006-1.109,8.571A15.475,15.475,0,0,1-648.7,1842.712Z"/><path class="a" d="M-484.415,1805.727c-3.6,0-6.234-2.5-6.2-5.879a7.315,7.315,0,0,1,7.4-6.956,5.826,5.826,0,0,1,6.008,6.057A7,7,0,0,1-484.415,1805.727Z"/><path class="a" d="M-759.961,1792.423c.643,2.056.867,2.205,2.551,1.773.927-.238,1.825-.6,2.758-.8a2.544,2.544,0,0,1,2.908,1.159,2.658,2.658,0,0,1-.328,3.325,9.127,9.127,0,0,1-2.789,1.761c-2.056.853-4.237,1.459-5.255,3.814a4.449,4.449,0,0,1,1.591-4.284c.775-.744,1.477-1.564,2.628-2.8a19.676,19.676,0,0,0-2.286-.35,13.972,13.972,0,0,1-1.658.175c-.571-.083-1.344-.28-1.588-.689a2.25,2.25,0,0,1,.119-1.743C-761.113,1793.305-760.564,1793-759.961,1792.423Z"/></g></svg>