<svg xmlns="http://www.w3.org/2000/svg" width="50.025" height="50.036" viewBox="0 0 50.025 50.036"><defs><style>.a{fill:#fff;fill-rule:evenodd;}</style></defs><g transform="translate(-1523.025 -716.529)"><path class="a" d="M1573.039,740.282a24.564,24.564,0,0,0-49.082-.448c-.012.356-.023.713-.023,1.069a24.184,24.184,0,0,0,3.518,12.59l-4.427,13.072,13.6-4.323A24.589,24.589,0,0,0,1573.05,740.9C1573.05,740.7,1573.05,740.489,1573.039,740.282Zm-24.547,21.109a20.576,20.576,0,0,1-11.36-3.391l-7.933,2.529,2.576-7.611a20.286,20.286,0,0,1-3.932-12.015,19.005,19.005,0,0,1,.1-1.989,20.657,20.657,0,0,1,41.126.391c.046.529.069,1.058.069,1.6A20.592,20.592,0,0,1,1548.492,761.391Z"/><path class="a" d="M1559.748,745.824c-.609-.3-3.564-1.748-4.116-1.943s-.955-.3-1.357.3-1.564,1.943-1.909,2.334-.7.448-1.31.149a16.25,16.25,0,0,1-4.84-2.966,17.862,17.862,0,0,1-3.347-4.128c-.344-.6-.034-.919.265-1.218.276-.276.6-.7.908-1.046.081-.1.15-.2.219-.288a6.7,6.7,0,0,0,.379-.713,1.076,1.076,0,0,0-.046-1.046c-.149-.3-1.356-3.242-1.863-4.438s-1-.989-1.356-.989-.747-.057-1.15-.057a2.223,2.223,0,0,0-1.609.747,6.691,6.691,0,0,0-2.1,4.99,7.59,7.59,0,0,0,.31,2.035,13.564,13.564,0,0,0,2.15,4.139c.3.391,4.162,6.622,10.279,9.026,6.127,2.379,6.127,1.586,7.232,1.483s3.564-1.438,4.058-2.84a4.938,4.938,0,0,0,.356-2.84C1560.748,746.272,1560.345,746.123,1559.748,745.824Z"/></g></svg>