<?xml version="1.0" encoding="UTF-8"?>
<svg xmlns="http://www.w3.org/2000/svg" xmlns:xlink="http://www.w3.org/1999/xlink" viewBox="0 0 50 50" width="50px" height="50px">
<g id="surface21326853">
<path style="fill-rule:nonzero;fill:rgb(0%,0%,0%);fill-opacity:1;stroke-width:10;stroke-linecap:butt;stroke-linejoin:round;stroke:rgb(80.000001%,80.000001%,80.000001%);stroke-opacity:1;stroke-miterlimit:10;" d="M 116.954754 10.324908 C 141.618701 10.324908 161.675098 30.381304 161.675098 55.045251 L 161.675098 116.954754 C 161.675098 141.618701 141.618701 161.675098 116.954754 161.675098 L 55.045251 161.675098 C 30.381304 161.675098 10.324908 141.618701 10.324908 116.954754 L 10.324908 55.045251 C 10.324908 30.381304 30.381304 10.324908 55.045251 10.324908 Z M 17.200571 55.045251 L 17.200571 116.954754 C 17.200571 137.895572 34.104433 154.799434 55.045251 154.799434 L 116.954754 154.799434 C 137.895572 154.799434 154.799434 137.895572 154.799434 116.954754 L 154.799434 55.045251 C 154.799434 34.104433 137.895572 17.200571 116.954754 17.200571 L 55.045251 17.200571 C 34.104433 17.200571 17.200571 34.104433 17.200571 55.045251 Z M 134.158178 44.717491 C 134.158178 48.526209 131.076968 51.593154 127.282515 51.593154 C 123.473796 51.593154 120.406851 48.526209 120.406851 44.717491 C 120.406851 40.923037 123.473796 37.841827 127.282515 37.841827 C 131.076968 37.841827 134.158178 40.923037 134.158178 44.717491 Z M 123.844683 86.000003 C 123.844683 106.855232 106.855232 123.844683 86.000003 123.844683 C 65.144774 123.844683 48.155323 106.855232 48.155323 86.000003 C 48.155323 65.144774 65.144774 48.155323 86.000003 48.155323 C 106.855232 48.155323 123.844683 65.144774 123.844683 86.000003 Z M 55.045251 86.000003 C 55.045251 103.146367 68.853638 116.954754 86.000003 116.954754 C 103.146367 116.954754 116.954754 103.146367 116.954754 86.000003 C 116.954754 68.853638 103.146367 55.045251 86.000003 55.045251 C 68.853638 55.045251 55.045251 68.853638 55.045251 86.000003 Z M 55.045251 86.000003 " transform="matrix(0.273837,0,0,0.273837,1.45,1.45)"/>
<path style=" stroke:none;fill-rule:nonzero;fill:rgb(0%,0%,0%);fill-opacity:1;" d="M 16.523438 4.277344 C 9.769531 4.277344 4.277344 9.769531 4.277344 16.523438 L 4.277344 33.476562 C 4.277344 40.230469 9.769531 45.722656 16.523438 45.722656 L 33.476562 45.722656 C 40.230469 45.722656 45.722656 40.230469 45.722656 33.476562 L 45.722656 16.523438 C 45.722656 9.769531 40.230469 4.277344 33.476562 4.277344 Z M 16.523438 6.160156 L 33.476562 6.160156 C 39.210938 6.160156 43.839844 10.789062 43.839844 16.523438 L 43.839844 33.476562 C 43.839844 39.210938 39.210938 43.839844 33.476562 43.839844 L 16.523438 43.839844 C 10.789062 43.839844 6.160156 39.210938 6.160156 33.476562 L 6.160156 16.523438 C 6.160156 10.789062 10.789062 6.160156 16.523438 6.160156 Z M 36.304688 11.8125 C 35.261719 11.8125 34.421875 12.65625 34.421875 13.695312 C 34.421875 14.738281 35.261719 15.578125 36.304688 15.578125 C 37.34375 15.578125 38.1875 14.738281 38.1875 13.695312 C 38.1875 12.65625 37.34375 11.8125 36.304688 11.8125 Z M 25 14.636719 C 19.289062 14.636719 14.636719 19.289062 14.636719 25 C 14.636719 30.710938 19.289062 35.363281 25 35.363281 C 30.710938 35.363281 35.363281 30.710938 35.363281 25 C 35.363281 19.289062 30.710938 14.636719 25 14.636719 Z M 25 16.523438 C 29.695312 16.523438 33.476562 20.304688 33.476562 25 C 33.476562 29.695312 29.695312 33.476562 25 33.476562 C 20.304688 33.476562 16.523438 29.695312 16.523438 25 C 16.523438 20.304688 20.304688 16.523438 25 16.523438 Z M 25 16.523438 "/>
</g>
</svg>
