<?xml version="1.0" encoding="UTF-8"?>
<svg xmlns="http://www.w3.org/2000/svg" xmlns:xlink="http://www.w3.org/1999/xlink" viewBox="0 0 32 32" width="32px" height="32px">
<g id="surface21388087">
<path style=" stroke:none;fill-rule:nonzero;fill:rgb(0%,0%,0%);fill-opacity:1;" d="M 12.828125 8.300781 C 10.34375 8.300781 8.300781 10.339844 8.300781 12.828125 L 8.300781 19.171875 C 8.300781 21.65625 10.339844 23.699219 12.828125 23.699219 L 19.171875 23.699219 C 21.65625 23.699219 23.699219 21.660156 23.699219 19.171875 L 23.699219 12.828125 C 23.699219 10.34375 21.660156 8.300781 19.171875 8.300781 Z M 12.828125 9.699219 L 19.171875 9.699219 C 20.902344 9.699219 22.300781 11.097656 22.300781 12.828125 L 22.300781 19.171875 C 22.300781 20.902344 20.902344 22.300781 19.171875 22.300781 L 12.828125 22.300781 C 11.097656 22.300781 9.699219 20.902344 9.699219 19.171875 L 9.699219 12.828125 C 9.699219 11.097656 11.097656 9.699219 12.828125 9.699219 Z M 20.132812 11.230469 C 19.78125 11.230469 19.5 11.511719 19.5 11.867188 C 19.5 12.21875 19.78125 12.5 20.132812 12.5 C 20.488281 12.5 20.769531 12.21875 20.769531 11.867188 C 20.769531 11.511719 20.488281 11.230469 20.132812 11.230469 Z M 16 11.800781 C 13.6875 11.800781 11.800781 13.6875 11.800781 16 C 11.800781 18.308594 13.6875 20.199219 16 20.199219 C 18.308594 20.199219 20.199219 18.308594 20.199219 16 C 20.199219 13.6875 18.308594 11.800781 16 11.800781 Z M 16 13.199219 C 17.554688 13.199219 18.800781 14.445312 18.800781 16 C 18.800781 17.554688 17.554688 18.800781 16 18.800781 C 14.445312 18.800781 13.199219 17.554688 13.199219 16 C 13.199219 14.445312 14.445312 13.199219 16 13.199219 Z M 16 13.199219 "/>
</g>
</svg>
