<svg xmlns="http://www.w3.org/2000/svg" width="144.88" height="45.567" viewBox="0 0 144.88 45.567"><defs><style>.a{fill:#8c32ff;}</style></defs><g transform="translate(-275.385 -42.712)"><path d="M275.385,50.734h8.076l8.13,20.752.642,1.712h-8.076Z"/><path d="M303.5,61.966c0-6.578,3.583-11.5,11.713-11.5,7.862,0,11.713,3.851,11.713,11.767H311.152c.16,5.241,2.621,8.718,7.167,8.718a8.429,8.429,0,0,0,7.488-4.172,2.635,2.635,0,0,1,.214,1.123c0,2.567-4.279,5.562-9.628,5.562C307.354,73.465,303.5,68.545,303.5,61.966Zm15.777-.8c-.16-6.472-1.818-9.627-4.064-9.627-2.568,0-3.958,3.851-4.065,9.627Z"/><path d="M331.184,50.734h7.487V52.82a14.039,14.039,0,0,1,8.077-2.353c3.636,0,6.846,1.337,6.846,3.69a2.623,2.623,0,0,1-2.782,2.568c-3.209,0-3.048-4.226-7.113-4.226a7.384,7.384,0,0,0-5.028,2.247V73.2h-7.487Z"/><path d="M356.151,50.734h7.488v3.423a9.747,9.747,0,0,1,7.755-3.69c5.776,0,10,4.065,10,11.446V73.2c-4.172,0-7.488-.588-7.488-4.332V61.324c0-5.669-1.337-8.343-4.707-8.343a7.4,7.4,0,0,0-5.562,3.155V73.2h-7.488Z"/><path d="M385.222,67.208c0-9.735,17.222-5.135,17.222-11.607a3.8,3.8,0,0,0-3.637-4.064c-4.6,0-1.283,7.06-6.685,7.06a2.856,2.856,0,0,1-2.942-2.889c0-2.353,2.567-5.241,9.306-5.241,4.921,0,10,1.6,10,8.451V73.2c-3.637,0-6.579-.428-7.327-2.995a11,11,0,0,1-7.916,3.262C388.592,73.465,385.222,71.165,385.222,67.208ZM401,68.759V59.72c-2.942,1.6-8.13,2.407-8.13,6.792,0,2.461,2.086,3.851,4.279,3.851A5.431,5.431,0,0,0,401,68.759Z"/><path d="M412.777,68.919V42.712h7.488V73.2C416.093,73.2,412.831,72.61,412.777,68.919Z"/><path class="a" d="M300.226,57.459c-1.423,2.205-5.31,3.316-7.087,12.478,0,0-5.22-9.884-.838-16.8,1.558-2.457,3.948-3.528,6.483-2.466C301.082,51.637,301.8,55.014,300.226,57.459Z"/><path d="M328.223,87.092a1.856,1.856,0,0,1-.493.622,2.28,2.28,0,0,1-.75.4,3.061,3.061,0,0,1-.961.143,4.023,4.023,0,0,1-1.557-.287,4.788,4.788,0,0,1-1.342-.863l.35-.4a5.016,5.016,0,0,0,.591.478,3.271,3.271,0,0,0,1.249.524,3.787,3.787,0,0,0,.739.067,2.435,2.435,0,0,0,.741-.108,1.776,1.776,0,0,0,.575-.3,1.376,1.376,0,0,0,.37-.453,1.233,1.233,0,0,0,.133-.57v-.02a1.421,1.421,0,0,0-.087-.514.977.977,0,0,0-.319-.411,2.319,2.319,0,0,0-.621-.334,6.465,6.465,0,0,0-1.007-.273,7.066,7.066,0,0,1-1.11-.313,2.765,2.765,0,0,1-.756-.421,1.449,1.449,0,0,1-.426-.561,1.87,1.87,0,0,1-.134-.729V82.75a1.615,1.615,0,0,1,.175-.745,1.884,1.884,0,0,1,.483-.6,2.306,2.306,0,0,1,.73-.4,2.84,2.84,0,0,1,.925-.144,3.837,3.837,0,0,1,1.351.215,4.065,4.065,0,0,1,1.115.659l-.339.421a3.087,3.087,0,0,0-2.148-.812,2.286,2.286,0,0,0-.725.108,1.791,1.791,0,0,0-.554.293,1.27,1.27,0,0,0-.355.432,1.157,1.157,0,0,0-.123.524v.02a1.451,1.451,0,0,0,.087.52,1.02,1.02,0,0,0,.318.421,2.262,2.262,0,0,0,.643.344,7.445,7.445,0,0,0,1.048.287,4.156,4.156,0,0,1,1.809.725,1.563,1.563,0,0,1,.555,1.259V86.3A1.772,1.772,0,0,1,328.223,87.092Z"/><path d="M334.59,81.445v6.711h-.534V81.445h-2.508v-.484h5.55v.484Z"/><path d="M346.348,86.465a2.734,2.734,0,0,1-.607.992,2.549,2.549,0,0,1-.929.607,3.347,3.347,0,0,1-1.2.2,3.4,3.4,0,0,1-1.187-.2,2.553,2.553,0,0,1-.935-.6,2.674,2.674,0,0,1-.612-.971,3.789,3.789,0,0,1-.216-1.336v-4.2h.535v4.153a2.806,2.806,0,0,0,.642,1.978,2.321,2.321,0,0,0,1.794.694,2.825,2.825,0,0,0,.986-.164,1.98,1.98,0,0,0,.756-.494,2.224,2.224,0,0,0,.483-.822,3.5,3.5,0,0,0,.169-1.141v-4.2h.535V85.1A3.95,3.95,0,0,1,346.348,86.465Z"/><path d="M356.584,85.978a3.354,3.354,0,0,1-.786,1.14,3.723,3.723,0,0,1-1.213.76,4.162,4.162,0,0,1-1.547.278h-2.394V80.961h2.394a4.264,4.264,0,0,1,1.547.273,3.648,3.648,0,0,1,1.213.756,3.364,3.364,0,0,1,.786,1.135,3.576,3.576,0,0,1,.278,1.413v.021A3.617,3.617,0,0,1,356.584,85.978Zm-.277-1.419a3.161,3.161,0,0,0-.231-1.206,2.986,2.986,0,0,0-.653-.99,3.053,3.053,0,0,0-1.028-.67,3.543,3.543,0,0,0-1.357-.248h-1.86v6.228h1.86a3.64,3.64,0,0,0,1.357-.242,3.061,3.061,0,0,0,1.028-.66,2.96,2.96,0,0,0,.653-.979,3.159,3.159,0,0,0,.231-1.212Z"/><path d="M360.808,88.156V80.961h.535v7.195Z"/><path d="M372.262,85.972a3.728,3.728,0,0,1-.734,1.187,3.474,3.474,0,0,1-1.146.817,3.562,3.562,0,0,1-1.485.3,3.494,3.494,0,0,1-2.621-1.115,3.627,3.627,0,0,1-.73-1.177,3.889,3.889,0,0,1-.257-1.407v-.021a3.873,3.873,0,0,1,.262-1.413,3.765,3.765,0,0,1,.735-1.188,3.5,3.5,0,0,1,1.141-.816,3.779,3.779,0,0,1,2.97,0,3.5,3.5,0,0,1,1.141.812,3.633,3.633,0,0,1,.73,1.176,3.894,3.894,0,0,1,.257,1.408.014.014,0,0,1,0,.021A3.857,3.857,0,0,1,372.262,85.972Zm-.292-1.413a3.409,3.409,0,0,0-.232-1.259,3.2,3.2,0,0,0-.637-1.028,3.027,3.027,0,0,0-.971-.694,3,3,0,0,0-3.427.684,3.154,3.154,0,0,0-.633,1.022,3.472,3.472,0,0,0-.226,1.254v.021a3.4,3.4,0,0,0,.232,1.259,3.21,3.21,0,0,0,.636,1.027,3.018,3.018,0,0,0,.972.695,3.008,3.008,0,0,0,3.428-.684,3.162,3.162,0,0,0,.632-1.023,3.462,3.462,0,0,0,.226-1.253Z"/></g></svg>