<svg xmlns="http://www.w3.org/2000/svg" width="314.926" height="104.751" viewBox="0 0 314.926 104.751"><defs><style>.a{fill:#fff;}</style></defs><g transform="translate(-423.537 -2720.77)"><path class="a" d="M423.542,2753.8q0-13.188-.005-26.375c0-2.8,1.068-4.968,3.686-6.125a6.057,6.057,0,0,1,8.515,5.62c.01,14-.027,28,.022,42,.014,4.221.175,8.446.414,12.661a21.244,21.244,0,0,0,.922,4.944,7.653,7.653,0,0,0,8.19,5.264,13.267,13.267,0,0,0,7.081-3.214,46.276,46.276,0,0,0,8.78-9.838c4.02-5.705,7.9-11.509,11.953-17.19A60.523,60.523,0,0,1,485.816,2748a30.879,30.879,0,0,1,39.753,2.71c4.669,4.607,8.154,10.069,11.514,15.633,2.926,4.845,5.811,9.718,8.867,14.481a24.017,24.017,0,0,0,9.413,8.955c6.562,3.242,13.091,3.008,19.177-1.1a18.055,18.055,0,0,0,8.291-17.338,18.9,18.9,0,0,0-19.536-17.12,19.458,19.458,0,0,0-12.193,5.358,6.1,6.1,0,0,1-8.138.178,6.246,6.246,0,0,1-1.143-8.227,10.224,10.224,0,0,1,1.626-1.736,31.036,31.036,0,0,1,41.817.64,30.361,30.361,0,0,1,9.831,22.947,30.907,30.907,0,0,1-27.121,30.445c-10.1,1.228-18.782-1.946-26.095-8.922-4.593-4.381-7.824-9.777-11.08-15.151-3.012-4.971-6.03-9.941-9.172-14.831a28.748,28.748,0,0,0-6.174-6.882,18.607,18.607,0,0,0-23.06.281,54.807,54.807,0,0,0-10.287,11.563c-3.842,5.456-7.549,11.008-11.414,16.447a54.639,54.639,0,0,1-12.006,12.827c-7.777,5.694-16.053,6.423-24.613,2.018-4.867-2.5-7.529-6.883-8.936-12.034a54.922,54.922,0,0,1-1.521-14.2c-.045-7.044-.011-14.089-.011-21.133Z"/><path class="a" d="M712.3,2736.378h-1.207q-12.827,0-25.652,0a7.562,7.562,0,0,1-.763-15.1c.335-.029.673-.032,1.01-.032q19.905,0,39.81,0a8.91,8.91,0,0,1,6.832,14.985l-15.159,17.255c-.216.246-.428.5-.7.815,1.48.349,2.855.622,4.2,1a24.91,24.91,0,0,1,12.006,6.937,21.851,21.851,0,0,1,5.658,17.637c-1.069,11.131-7.651,17.9-17.754,21.692a41.846,41.846,0,0,1-13.411,2.4,63.587,63.587,0,0,1-24.856-4.008c-3.087-1.165-5.285-3.076-5.886-6.431a7.694,7.694,0,0,1,2.74-7.655,7.508,7.508,0,0,1,8.171-1.295,43.374,43.374,0,0,0,10.9,3.14c4.832.669,9.658.849,14.336-.868,3.124-1.147,5.664-3.037,6.519-6.443,1.228-4.891-.458-9.612-6.34-11.514a27.03,27.03,0,0,0-8.34-1.122,8.428,8.428,0,0,1-8.261-5.721,9.037,9.037,0,0,1,1.769-9.356q6.836-7.75,13.681-15.494C711.786,2737,711.957,2736.786,712.3,2736.378Z"/><path class="a" d="M615.427,2748.316a31.091,31.091,0,1,1-.029,49.534v1.046q0,10.017,0,20.034c-.005,3.307-1.774,5.7-4.692,6.415a6.053,6.053,0,0,1-7.5-5.641c-.007-.184,0-.368,0-.552q0-35.289,0-70.579a6.077,6.077,0,0,1,12.093-1.066C615.326,2747.746,615.371,2747.983,615.427,2748.316Zm18.81,43.633a18.87,18.87,0,1,0-18.873-19.13A18.887,18.887,0,0,0,634.237,2791.949Z"/><path class="a" d="M504.812,2804.132c-9.855-.2-17.613-3.616-23.83-10.416a6.116,6.116,0,0,1,2.985-10.192,5.791,5.791,0,0,1,5.972,1.931,18.894,18.894,0,0,0,27.239,1.219,5.922,5.922,0,0,1,6.412-1.517,5.991,5.991,0,0,1,4.036,5.238,5.672,5.672,0,0,1-1.875,4.965,30.538,30.538,0,0,1-16.29,8.256C507.717,2803.914,505.939,2804.011,504.812,2804.132Z"/></g></svg>