<svg xmlns="http://www.w3.org/2000/svg" width="448.294" height="188.755" viewBox="0 0 448.294 188.755"><defs><style>.a{fill:#fff;}</style></defs><g transform="translate(-356.853 -3591.488)"><path class="a" d="M633.577,3644.316c.849,27.36-23.406,50.67-50.967,51.1a52.188,52.188,0,0,1-53.437-51.691,49.863,49.863,0,0,1,14.979-36.734,50.983,50.983,0,0,1,36.823-15.5c15.106-.191,27.947,5.121,38.287,15.843C628.84,3617.269,633.942,3629.321,633.577,3644.316Zm-48.1,1.713-.181.156.148-.188.645-.646a125.7,125.7,0,0,1,24.406-14.837,30.417,30.417,0,0,0-5.445-9.37c-.631.57-1.189,1.033-1.7,1.542a116.465,116.465,0,0,0-12.762,15.824c-1.576,2.229-2.981,4.58-4.463,6.875Zm3.812-.037,1.283-.638,1.282-.637c2.688-.883,5.351-1.859,8.071-2.627,3.826-1.08,7.7-2.005,11.717-3.041l-.591-3.932c.1-.088.2-.176.153-.133.038-.051-.043.055-.124.162a11.514,11.514,0,0,0-2.755.507c-3.743,1.689-7.5,3.375-11.123,5.3a47.524,47.524,0,0,0-5.322,3.793l-1.276.643-1.281.635-.184.151C589.112,3646.215,589.2,3646.1,589.294,3645.992Zm-16.614,0,.16.178-.193-.144-1.281-.637a4,4,0,0,0-.8-.954,100.633,100.633,0,0,0-14.514-7.937c-1.6-.656-3.258-1.164-4.9-1.743-.293,1.692-.523,3.028-.76,4.4a4.335,4.335,0,0,0,.925.353,61.831,61.831,0,0,1,14.732,3.806c1.776.693,3.563,1.359,5.345,2.037Zm3.833,4.492.756.549.171-.366-.942-.167c-.215-.217-.391-.512-.65-.638a74.338,74.338,0,0,0-16.755-5.711,26.751,26.751,0,0,0-9.185-.523c.379,2.317.731,4.475,1.112,6.806a35.545,35.545,0,0,0,4.243.558q9.079.086,18.16,0A19.617,19.617,0,0,0,576.513,3650.484Zm-.634-5.132c.1.114.191.228.113.134l-.145-.1a8.415,8.415,0,0,0-.739-1.705c-3.987-5.494-7.876-11.067-12.081-16.391-1.718-2.175-3.421-4.547-5.91-5.974a20.045,20.045,0,0,0-5.311,9.3A113.011,113.011,0,0,1,575.879,3645.352Zm2.561-1.275.176.95.362-.176-.563-.751a13.31,13.31,0,0,0-.192-2.217c-1.879-7.377-3.631-14.793-5.788-22.089-.75-2.539-1.308-5.336-3.05-7.332l-8.033,5.327a2.116,2.116,0,0,0,.185.567c3.566,5.271,7.184,10.508,10.7,15.814C574.386,3637.418,576.377,3640.771,578.44,3644.077Zm5.094.639a3.585,3.585,0,0,0,.612-.682,160.713,160.713,0,0,1,10.78-17.672c1.977-2.858,3.915-5.743,5.817-8.536l-8.175-5.444c-.786,1.9-1.714,3.711-2.289,5.625-1.612,5.369-3.176,10.756-4.568,16.184-.891,3.472-1.444,7.03-2.149,10.55l-.564.719.34.177ZM573.27,3610.6c1.081,3.779,2.216,7.408,3.143,11.088.931,3.7,1.639,7.449,2.473,11.17.811,3.616,1.01,7.369,2.259,10.889a157.144,157.144,0,0,1,7.658-33.166A29.5,29.5,0,0,0,573.27,3610.6Zm39.182,32.89c-10.413-.364-19.176,3.235-27.823,7.323,6.843.2,13.646.244,20.447.176,1.946-.019,3.888-.357,5.994-.565C611.533,3648.1,611.94,3646.054,612.452,3643.487Zm9.7,18.457,0-.367c-3.372-.253-6.745-.731-10.117-.723-23.531.054-47.07-.736-70.592.553-.5.028-1,.129-2.239.3,7.781.3,14.781.75,21.785.815,19.165.177,38.331.224,57.487-.568C619.693,3661.9,620.921,3661.944,622.148,3661.944Zm-7.058,5.587-.007-.474a20.782,20.782,0,0,0-2.746-.426c-9.466-.24-18.932-.541-28.4-.616-5.52-.044-11.044.335-16.567.441-5.116.1-10.234.039-15.349.153-1.741.039-3.475.4-5.213.608,6.823.513,13.609.881,20.4,1.066,15.868.431,31.723-.41,47.585-.642A.969.969,0,0,0,615.09,3667.531Zm-59.3,4.772-.045.584a16.891,16.891,0,0,0,2.69.526c7.014.242,14.029.576,21.044.593,6.375.016,12.751-.334,19.126-.511,1.491-.042,2.99.037,4.475-.077,1.218-.093,2.42-.391,3.63-.6-7.492-.6-14.925-1.043-22.359-1.067-7.865-.025-15.732.356-23.6.543C559.1,3672.337,557.448,3672.3,555.793,3672.3Z"/><path class="a" d="M390.894,3721.557c-.492.8-1.048,1.558-1.467,2.389-3.355,6.65-6.68,13.314-10.026,19.968-.467.927-1,1.821-1.484,2.693-1.709-.32-1.892-1.651-2.384-2.625-3.878-7.673-7.706-15.372-11.548-23.063l-.145-.178.172.149q0,10.4-.005,20.8c0,3.3.005,3.3,1.124,5.7a17.781,17.781,0,0,1-8.278,0l1.365-2.217v-29.856l-1.356-1.853c.482-1.184,8.387-1.319,11.636-.4-.2.381-.363.74-.571,1.071-.167.266-.39.5-.744.94l10.343,20.409c3.823-7.257,7.3-13.866,10.6-20.131l-1.179-2.114c.788-.912,8.52-1.027,12.426-.284l-1.826,2.488v29.594l1.667,1.928c-.161.294-.231.6-.356.624-3.213.628-7.909.363-9.658-.574l1.662-1.493v-23.984l.546-.754-.343-.165Z"/><path class="a" d="M497.663,3722.972v7.318H511.8l1.7-1.151c1.174.417,1.306,3.7.463,7.282-1.722-1.811-3.876-1.388-5.939-1.4-3.4-.024-6.809-.007-10.294-.007,0,1.414.035,2.742-.01,4.067-.043,1.263-.169,2.524-.272,3.989.784.062,1.6.182,2.423.185q8.151.026,16.3.008c1.538,0,3.166.319,4.174-1.36,1.444,1.145.41,2.378.589,3.445a32.141,32.141,0,0,1,.235,3.4c-1.266,1.054-1.585-.445-2.385-.878-9.245-.021-18.561.008-28.221-.016,1.941-2.794,1.935-2.794,1.934-6.013,0-7.029,0-14.059,0-21.182l-1.8-1.715c.4-.3.639-.616.88-.621,2.661-.056,5.323-.076,7.984-.08,6.071-.009,12.143,0,18.249,0l1.894-1.6c.272.159.6.261.6.367.03,2.287.023,4.574.023,7.425l-2.125-1.453Z"/><path class="a" d="M694.4,3725.021v20.863l1.582,1.22c-.078.146-.146.452-.27.477a15.844,15.844,0,0,1-7.924-.429l1.751-1.781a.784.784,0,0,0,.106-.27c.005-8.1.005-16.192.005-24.465l-1.674-1.546c.15-.263.223-.565.35-.59a29.883,29.883,0,0,1,9.949.293l-1.451,1.653,17.234,19.925c.031-7.163.022-13.661.022-20.059l-1.978-1.33a14.018,14.018,0,0,1,8.484-.208c-.636.65-1.176,1.2-1.818,1.854v24.894l1.808,1.638c-2.239.862-6.613.951-9.8.193l1.824-1.5Z"/><path class="a" d="M538.376,3735.158v9.9l1.924,2.25c-2.823.933-5.347.462-8.614.454,2.183-2,1.891-4.014,1.89-5.975q0-9.27,0-18.54V3720.2l-1.622-.9c.18-.292.293-.72.512-.785a6.746,6.746,0,0,1,1.859-.269q9.27-.026,18.54,0a10.124,10.124,0,0,1,2.836.3c3.471,1.044,5.345,3.777,5.482,7.715.155,4.467-2.017,6.78-5.032,8.031-.766.318-1.574.534-2.574.867,3.082,4,4.969,8.573,8.71,11.827-1.671,1.051-3.793,1.191-8.081.509.167-.679.329-1.339.54-2.2l-6.365-10.145Zm15.741-4.842,1.615-1.465c.26-3.57.26-3.57-1.2-5.815-5.231-1.323-10.6-.611-16.111-.609v7.889Z"/><path class="a" d="M448.929,3746.727l1.988-1.211v-24.927l-2.118-1.917a18.226,18.226,0,0,1,2.528-.426c5.326-.017,10.657-.125,15.978.048,8.056.262,13.189,5.525,13.268,13.635a23.89,23.89,0,0,1-.544,5.977c-1.576,6.311-6.478,9.506-12.576,9.863-5.627.33-11.287.09-16.933.077a4.719,4.719,0,0,1-1.181-.318Zm6.745-23.968v7.106c0,2.239-.055,4.48.014,6.716.068,2.189-.34,4.417.321,6.642,3.75,0,7.378.131,10.991-.04a8.432,8.432,0,0,0,7.306-4.409,11.948,11.948,0,0,0,1-8.914,8.146,8.146,0,0,0-5.939-6.388C464.978,3722.194,460.5,3723.131,455.674,3722.759Z"/><path class="a" d="M761.951,3721.028a15.232,15.232,0,0,1-2.927,6.964c-.31-.436-.57-.813-.843-1.181-.434-.583-.753-1.372-1.333-1.707-4.912-2.845-10.03-4.053-15.465-1.487-6.12,2.89-8.035,10.34-3.867,16.235,1.236,1.748,3.208,2.479,5.081,3.147a17.881,17.881,0,0,0,14.244-1.5c.027-.428.087-.945.084-1.463s-.067-1.018-.115-1.656h-6.142l-1.589,1.277c-.908-2.479-.33-4.709-.406-6.73,2.015.266,3.7.619,5.4.685,2.839.111,5.686.039,8.814.045-.7,3.055-1.226,5.741.059,8.335-1.608,2.478-4.066,3.609-6.552,4.44a28.649,28.649,0,0,1-8.321,1.864c-5.3.095-10.343-1.237-14.254-5.158a11.709,11.709,0,0,1-2.352-3.76c-3.867-9.32,1.582-17.633,9.076-20.457,6.017-2.268,11.7-1.109,17.287,1.39C759.155,3720.91,760.4,3721.608,761.951,3721.028Z"/><path class="a" d="M789.03,3717.672a19.086,19.086,0,0,1,11.906,5.007c6.756,6.323,5.72,20.15-5.573,24.266a19.556,19.556,0,0,1-13.368.316c-7.028-2.392-10.261-7.1-10.739-13.907a13.721,13.721,0,0,1,5.182-11.511C779.771,3719.035,783.792,3717.644,789.03,3717.672Zm10.843,15.513c.08-3.237-.707-6.19-3.444-8.148a13.34,13.34,0,0,0-14.674-1.111c-3.866,1.94-6.376,7.744-4.937,11.942,1.616,4.717,4.887,6.98,9.464,7.863C793.352,3745.095,799.849,3740.034,799.873,3733.185Z"/><path class="a" d="M570.584,3733.214c-.167-6.709,3.209-11.01,8.793-13.728a18.026,18.026,0,0,1,16.3.129c9.174,4.429,10.9,14.678,5.812,22.08a15.3,15.3,0,0,1-9.431,6.059,21.111,21.111,0,0,1-12.131-.925C574.575,3744.947,569.992,3738.582,570.584,3733.214Zm28.355.01c.541-4.91-2.767-9.147-8.243-10.489a14.1,14.1,0,0,0-7.206.135c-7.13,1.9-9.151,8.44-6.874,14.648,1.759,4.8,7.308,6.905,12.161,6.23C594.807,3742.91,599.258,3739.465,598.939,3733.224Z"/><path class="a" d="M645.077,3719.665l-1.98-1.806H632.131c-.662,2.311-.885,20.153-.341,27.772l1.519,1.351c-.141.265-.208.57-.332.595a22.934,22.934,0,0,1-8.983-.274c1.147-2.2,1.149-2.2,1.149-5.357q0-10.389,0-20.777c0-1.036,0-2.072,0-3.26H613.855l-1.723,1.5c-1.507-.513-1.588-6.238.111-8.949l1.229,1.97h29.464l1.819-1.236C645.953,3711.672,646.047,3716.751,645.077,3719.665Z"/><path class="a" d="M658.374,3720.538l-2.039-1.7c.421-.224.691-.491.962-.493,3.485-.028,6.971-.019,10.935-.019l-1.433,2.217c1.013,2.294,2.077,4.821,3.237,7.305,2.339,5.009,4.684,10.017,7.126,14.977a47.678,47.678,0,0,0,2.772,4.41c-1.659.84-6.056.917-8.8-.028l2.071-1.8c-.946-1.953-1.9-3.918-2.824-5.834H654.852q-1.3,2.979-2.635,6.052l1.586,1.4c-.441,1.165-5.9,1.159-8.323.027,2.294-1.309,2.756-3.678,3.686-5.735C652.272,3734.45,655.28,3727.54,658.374,3720.538Zm9.935,14.249c-2.41-4.109-3.668-8.241-6.077-12.154-1.9,4.271-3.639,8.157-5.423,12.154Z"/><path class="a" d="M413.943,3745.165l1.518,2.485h-8.218a29.641,29.641,0,0,0,2.558-3.863c3.471-7.739,6.849-15.519,10.264-23.3l-1.585-1.408c.411-1.047,7.487-1.23,11.369-.412a4.513,4.513,0,0,1-.542.988,2.987,2.987,0,0,1-.832.455,21.15,21.15,0,0,0,.758,2.387c3.28,7.032,6.54,14.074,9.927,21.055a22.575,22.575,0,0,0,2.767,3.641,14.316,14.316,0,0,1-8.947-.057l1.868-1.492q-1.279-2.933-2.631-6.031H416.5C415.665,3741.432,414.791,3743.327,413.943,3745.165Zm10.019-22.687-5.489,12.227H429.98Z"/><path class="a" d="M581.624,3774.839v-11.3l1.479-.378c.711,2.513.736,13.887.081,16.506-.869.379-1.367-.016-1.8-.764-1.425-2.491-2.885-4.962-4.337-7.438-.693-1.18-1.4-2.353-2.448-4.115v12.289l-1.8.138v-16.249c1.292-.773,1.9-.044,2.39.828,1.31,2.313,2.581,4.648,3.885,6.964.674,1.2,1.386,2.374,2.08,3.56Z"/><path class="a" d="M612.661,3773.574l1.287-.149c.236,1.095.453,2.1.662,3.07,1.606,2.054,3.505,2.261,6,.871.2-.81.461-1.879.793-3.23a25.33,25.33,0,0,0-3.912-1.671c-3.1-.737-4.871-2.449-4.791-5.925,1.527-3.4,4.745-4.621,7.851-2.876a4.834,4.834,0,0,1,2.2,3.345c.2.783.318,1.46-.641,1.865-1.933-.257-1.027-2.332-1.992-3.216-3.344-1.041-4-.886-5.681,1.373a2.855,2.855,0,0,0,2.3,2.994c1.1.372,2.241.654,3.31,1.1a4.791,4.791,0,0,1,3.139,5.29c-.42,1.794-3.045,3.992-5.007,3.814-1.529-.139-3.21-.267-4.408-1.526C612.732,3777.62,612.327,3775.763,612.661,3773.574Z"/><path class="a" d="M597.213,3771.523a41.77,41.77,0,0,1,1.19-4.863c.866-2.346,2.885-3.308,5.229-3.518a5.41,5.41,0,0,1,5.473,3.1,11.448,11.448,0,0,1,.239,10.373c-1.186,2.731-3.466,3.761-6.476,3.357a6.429,6.429,0,0,1-5.241-5.213,29.89,29.89,0,0,1-.175-3.174Zm11.494.461a32.3,32.3,0,0,0-1.053-4.472,3.782,3.782,0,0,0-3.51-2.34,3.9,3.9,0,0,0-3.828,1.778c-1.5,2.333-1.321,7.518.33,9.66,1.942,2.521,5.322,2.315,6.761-.529A25.235,25.235,0,0,0,608.707,3771.984Z"/><path class="a" d="M570.876,3765.1h-7.623v4.95l6.138.21v1.768c-1.127.055-2.157.123-3.188.151-.934.025-1.868.005-2.974.005v5.431a21.2,21.2,0,0,0,3.989.525c1.339-.067,2.684-.684,3.536.992-1.938.927-5.468,1.075-9.284.446-.559-2.418-.621-13-.035-16.4,1.378-.029,2.832-.071,4.286-.086,1.485-.016,2.97,0,4.589,0Z"/><path class="a" d="M536.791,3763.22a43.668,43.668,0,0,1,8.952.136v1.707h-7.387v5H544.8l.406,2.054h-6.857v5.722c1.506.023,2.957-.009,4.4.084,1.26.08,2.808-.522,3.652,1.359-1.493,1.082-3.118.507-4.614.6-1.565.1-3.141.022-4.978.022C536.565,3774.234,536.5,3768.894,536.791,3763.22Z"/><path class="a" d="M547.991,3762.777c2.506,1.938,2.162,4.529,3.009,6.583.837,2.028,1.41,4.164,2.237,6.67,1.179-3.693,2.231-7.013,3.3-10.326a8.074,8.074,0,0,1,.838-2.043c.223-.33.835-.4,1.657-.744a13.049,13.049,0,0,1-.24,1.773c-1.327,4.357-2.651,8.715-4.043,13.052-.294.917-.445,2.159-2.186,2.06-1.639-5.1-3.29-10.21-4.9-15.329C547.565,3764.137,547.8,3763.693,547.991,3762.777Z"/><path class="a" d="M589.846,3765.247l-3.976-.214-.4-1.277c.867-.842,4.716-.976,10.017-.448.078.407.167.871.294,1.528l-3.845.512c-.023,2.294-.054,4.593-.065,6.892-.012,2.334,0,4.668,0,7.13l-1.589.573c-.794-2.546-.329-4.981-.412-7.37C589.782,3770.247,589.846,3767.916,589.846,3765.247Z"/></g></svg>