<svg xmlns="http://www.w3.org/2000/svg" width="37.734" height="29.147" viewBox="0 0 37.734 29.147"><defs><style>.a{fill:#b482ff;opacity:0.46;}</style></defs><path class="a" d="M293.421,1352.959l7.954-7.157q3.919-3.526,7.836-7.054a1.777,1.777,0,0,1,2.017-.461,1.8,1.8,0,0,1,1.049,1.838q0,4.9,0,9.791a2.079,2.079,0,0,1-.731,1.634q-8.4,7.55-16.795,15.111a1.767,1.767,0,0,1-2.708-.019q-8.378-7.54-16.757-15.078a2.079,2.079,0,0,1-.743-1.629c0-3.28,0-6.561.005-9.841a1.728,1.728,0,0,1,2.34-1.823,2.8,2.8,0,0,1,.778.536q7.638,6.861,15.267,13.732C293.083,1352.671,293.234,1352.8,293.421,1352.959Z" transform="translate(-274.545 -1338.136)"/></svg>