<svg xmlns="http://www.w3.org/2000/svg" width="42.027" height="40.439" viewBox="0 0 42.027 40.439"><defs><style>.a{fill:#fff;}</style></defs><g transform="translate(-1234.488 -6138.762)"><path class="a" d="M1276.515,6163.391v1.063c-.03.1-.065.206-.09.31a3.7,3.7,0,0,1-1.93,2.563,13.666,13.666,0,0,1-1.773.624,1.184,1.184,0,0,0-.032.146,3.823,3.823,0,0,1-3.5,3.486c-.256.038-.292.159-.314.375a3.852,3.852,0,0,1-2.8,3.287c-.312.086-.635.13-.945.192a.653.653,0,0,0-.029.093,3.766,3.766,0,0,1-2.622,3.429,3.806,3.806,0,0,1-4.17-1.027q-1.263-1.257-2.526-2.513c-.093-.093-.193-.178-.329-.3-1.013,1.025-1.977,2.05-3,3.018a3.893,3.893,0,0,1-5.138.172,3.935,3.935,0,0,1-1.445-2.883l-.211-.033a3.852,3.852,0,0,1-3.548-3.531c-.043-.289-.226-.258-.407-.28a3.868,3.868,0,0,1-3.284-2.856c-.075-.287-.115-.583-.168-.859a.314.314,0,0,0-.057-.031c-.067-.01-.135-.018-.2-.026a3.816,3.816,0,0,1-2.919-1.818,3.866,3.866,0,0,1,.609-4.87c.955-.973,1.933-1.924,2.91-2.894-.088-.121-.157-.22-.228-.316a11.648,11.648,0,0,1-2.218-9.5,11.98,11.98,0,0,1,19.064-7.161.376.376,0,0,0,.556,0,11.953,11.953,0,0,1,18.435,13.81,35.226,35.226,0,0,1-1.722,3.26c.649.642,1.369,1.388,2.127,2.094A5.469,5.469,0,0,1,1276.515,6163.391Zm-24.807-14.761c-.742.742-1.445,1.448-2.151,2.151q-6,5.984-12.011,11.963a1.675,1.675,0,0,0-.585,1.087,1.453,1.453,0,0,0,2.478,1.124c.9-.877,1.784-1.768,2.671-2.657a1.252,1.252,0,0,1,1.065-.417,1.15,1.15,0,0,1,1.017.774,1.177,1.177,0,0,1-.286,1.317q-1.311,1.323-2.638,2.632a1.469,1.469,0,0,0-.5,1.281,1.383,1.383,0,0,0,.939,1.187,1.4,1.4,0,0,0,1.548-.348c.876-.861,1.731-1.743,2.621-2.59a1.784,1.784,0,0,1,.8-.444,1.136,1.136,0,0,1,1.265.622,1.224,1.224,0,0,1-.25,1.464c-.864.873-1.752,1.724-2.6,2.612a1.982,1.982,0,0,0-.49.864,1.363,1.363,0,0,0,.743,1.537,1.424,1.424,0,0,0,1.7-.271c.888-.868,1.749-1.764,2.651-2.618a1.825,1.825,0,0,1,.845-.439,1.129,1.129,0,0,1,1.207.657,1.178,1.178,0,0,1-.244,1.426c-.861.876-1.74,1.735-2.6,2.609a2.141,2.141,0,0,0-.414.55,1.423,1.423,0,0,0,.5,1.774,1.445,1.445,0,0,0,1.874-.187c.939-.915,1.854-1.853,2.8-2.765a.466.466,0,0,0,.121-.6,3.883,3.883,0,0,1,2.91-5.255c.2-.038.4-.056.6-.084a3.942,3.942,0,0,1,1.149-2.624,11.224,11.224,0,0,0,6.433-4.962c.015-.078.033-.157.045-.238a3.88,3.88,0,0,1,5.345-3.223c.288.1.368-.045.484-.207a9.226,9.226,0,0,0,1.612-7.786,9.452,9.452,0,0,0-10.738-7.218,9.3,9.3,0,0,0-4.394,1.916,2.552,2.552,0,0,1,.42.269c1.435,1.421,2.86,2.853,4.3,4.272a3.984,3.984,0,0,1,1.272,2.707,3.908,3.908,0,0,1-6.591,3.023c-.617-.579-1.206-1.187-1.805-1.784C1253.791,6150.711,1252.769,6149.689,1251.708,6148.63Zm-11.278,7.922a2.493,2.493,0,0,1,.271-.415q4.968-4.961,9.944-9.913a1.292,1.292,0,0,1,2.117,0q2.727,2.714,5.454,5.43a1.463,1.463,0,0,0,2.123.049,1.433,1.433,0,0,0-.057-2.083c-1.939-1.94-3.869-3.89-5.836-5.8a9.1,9.1,0,0,0-5.714-2.567,9.486,9.486,0,0,0-8.3,15.3Zm17.2,13.5a1.51,1.51,0,0,0-1.547.855,1.365,1.365,0,0,0,.292,1.619q1.885,1.9,3.8,3.78a1.447,1.447,0,1,0,2.036-2.055c-1.245-1.261-2.5-2.518-3.773-3.746A3.031,3.031,0,0,0,1257.634,6170.053Zm7.563-7.578a1.523,1.523,0,0,0-1.518.872,1.339,1.339,0,0,0,.279,1.584q1.9,1.923,3.824,3.813a1.446,1.446,0,0,0,2.049-2.04c-1.262-1.283-2.535-2.556-3.833-3.8A2.825,2.825,0,0,0,1265.2,6162.475Zm1.348,8.976a4.149,4.149,0,0,0-.532-.967c-1.232-1.273-2.495-2.517-3.758-3.761a1.449,1.449,0,1,0-2.059,2.038c.387.4.79.791,1.186,1.185.859.857,1.713,1.719,2.581,2.567a1.38,1.38,0,0,0,1.621.31A1.644,1.644,0,0,0,1266.545,6171.451Zm2.331-12.829a1.682,1.682,0,0,0-1.393.919,1.4,1.4,0,0,0,.284,1.622q1.886,1.9,3.8,3.782a1.451,1.451,0,0,0,2.062.013,1.423,1.423,0,0,0-.008-2.052c-1.256-1.269-2.516-2.535-3.8-3.774A4,4,0,0,0,1268.876,6158.622Z"/></g></svg>