<svg xmlns="http://www.w3.org/2000/svg" width="31.007" height="47.362" viewBox="0 0 31.007 47.362"><defs><style>.a{fill:#fff;}</style></defs><path class="a" d="M1625.893,6146.516a15.374,15.374,0,0,0-17.9-12.157,15.54,15.54,0,0,0-12.644,17.033,15.2,15.2,0,0,0,6,10.512,6.172,6.172,0,0,1,2.59,5.273c-.007.47-.132.627-.585.731a2.921,2.921,0,0,0-1.88,4.416.645.645,0,0,1-.007.789,2.96,2.96,0,0,0,2.529,4.5c.209.005.418,0,.635,0l.322,0-.041.46a3.211,3.211,0,0,0,.714,2.417,2.931,2.931,0,0,0,2.141.941c.8.033,1.646.049,2.579.049,1.2,0,2.386-.026,3.53-.056a2.771,2.771,0,0,0,2.585-2.1,5.368,5.368,0,0,0,.12-1.136l.025-.574.746,0a2.938,2.938,0,0,0,2.707-1.512,2.834,2.834,0,0,0-.1-3.09.483.483,0,0,1,.009-.617,2.727,2.727,0,0,0,.468-1.928,2.931,2.931,0,0,0-2.461-2.617l-.087-.017a1.07,1.07,0,0,1-.111-.024l-.239-.059.02-.247c.018-.229.029-.46.039-.684a9.176,9.176,0,0,1,.126-1.35,6.487,6.487,0,0,1,2.573-3.7C1625.195,6157.713,1627.08,6152.581,1625.893,6146.516Zm-11.628,32.565a1.066,1.066,0,0,1-.744.271c-.35,0-.7,0-1.056,0h-2.781c-.574,0-1.16,0-1.736,0a1.057,1.057,0,0,1-.738-.27.8.8,0,0,1-.223-.59.867.867,0,0,1,.963-.871c1.848-.01,3.724-.01,5.574,0a.869.869,0,0,1,.962.874A.8.8,0,0,1,1614.265,6179.081Zm3.369-3.588a1.809,1.809,0,0,1-.408.034h-12.968c-.65,0-1.029-.254-1.1-.736a.876.876,0,0,1,.175-.717.911.911,0,0,1,.71-.283c.641-.006,1.29-.008,1.932-.008l6.964,0c1.465,0,2.93,0,4.394,0,.553,0,.878.215.965.635A.854.854,0,0,1,1617.634,6175.493Zm.156-5.494a.776.776,0,0,1,.518.935h0a.734.734,0,0,1-.753.693c-.429.011-.863.015-1.291.015-.187,0-.372,0-.555,0h-7.961q-1.814,0-3.628,0a.843.843,0,0,1-.958-.693.834.834,0,0,1,.7-1.006,2.357,2.357,0,0,1,.524-.042c3.833,0,8.292,0,12.7,0A2.13,2.13,0,0,1,1617.79,6170Zm-6.2-5.119,0,2.312c0,.124,0,.262-.007.345l-.02.249-.25.017c-.085.006-.226,0-.338,0-.144,0-.267,0-.376,0-.086,0-.162,0-.229,0-.093,0-.165,0-.216-.006l-.24-.02-.024-.24c-.011-.095-.01-.269-.008-.441l0-.364c-.005-1.194,0-2.408,0-3.583l0-3.009c0-1.346,0-2.736-.008-4.1a.681.681,0,0,1,.091-.419l.086-.076a.8.8,0,0,1,.372-.065c.144,0,.269,0,.38.007h.077a4.3,4.3,0,0,1,.458.018l.222.032.025.223a4,4,0,0,1,.007.432c0,.143-.005.285-.005.448C1611.594,6159.389,1611.593,6162.18,1611.592,6164.88Zm7.292-4.67a8.212,8.212,0,0,0-3.253,4.973,11.946,11.946,0,0,0-.151,1.953l-.005.238a.857.857,0,0,1-.029.219l-.047.161-.164.04a2.753,2.753,0,0,1-.529.025c-.542,0-.711-.026-.828-.142-.138-.136-.153-.345-.153-1.113l0-6.438c0-1.336.005-2.717-.012-4.075a.745.745,0,0,1,.075-.4c.077-.155.3-.172.506-.167a12.464,12.464,0,0,0,1.76-.063,3.909,3.909,0,0,0,3.439-3.838,3.949,3.949,0,0,0-3.29-3.924,3.893,3.893,0,0,0-4.561,3.593c-.034.472-.049.985-.051,1.662a.754.754,0,0,1-.029.232l-.051.152-.158.039a.823.823,0,0,1-.19.017c-.154,0-.3,0-.428,0h-.09c-.2,0-.412,0-.517-.013l-.233-.03-.02-.235c-.007-.089,0-.253,0-.412.005-.185.01-.342.009-.527a4.508,4.508,0,0,0-1.406-3.585,3.913,3.913,0,0,0-4.507-.434,3.967,3.967,0,0,0-1.9,4.247,3.892,3.892,0,0,0,3.293,3.052,17.672,17.672,0,0,0,1.779.074h.174a.726.726,0,0,1,.218.026l.153.048.042.155a.765.765,0,0,1,.02.187c-.008,3.78-.008,7.646,0,11.491a.83.83,0,0,1-.016.179l-.037.169-.166.049a.785.785,0,0,1-.2.025c-.186,0-.339.007-.467.007-.419,0-.564-.029-.671-.127-.142-.131-.163-.335-.188-1.081a7.722,7.722,0,0,0-3.157-6.177,13.581,13.581,0,0,1-5.1-7.628,13.174,13.174,0,0,1,1.748-10.46,13.438,13.438,0,0,1,8.879-5.921,13.7,13.7,0,0,1,10.259,2.337,13.412,13.412,0,0,1,.256,21.444Zm-5.159-8.028v-.169c0-.154,0-.309,0-.465a1.771,1.771,0,0,1,1.827-1.829,1.811,1.811,0,0,1,1.835,1.78,1.736,1.736,0,0,1-.478,1.259,1.939,1.939,0,0,1-1.372.589l-.22,0h-.42c-.7,0-.883-.013-1.015-.123C1613.737,6153.055,1613.725,6152.867,1613.725,6152.182Zm-5.979-.241v.222c0,.711-.012.9-.134,1.034-.145.137-.339.151-1.05.151h-.335c-.125,0-.247,0-.369,0a1.813,1.813,0,0,1,.022-3.625,1.765,1.765,0,0,1,1.865,1.762C1607.748,6151.632,1607.747,6151.782,1607.746,6151.941Z" transform="translate(-1595.23 -6134.12)"/></svg>