<svg xmlns="http://www.w3.org/2000/svg" width="40.232" height="40.36" viewBox="0 0 40.232 40.36"><defs><style>.a{fill:#fff;}</style></defs><g transform="translate(-1235.964 -6497.82)"><path class="a" d="M1256.069,6497.821h5.2a1.367,1.367,0,0,1,1.52,1.53c0,2.416,0,4.832.006,7.249a2.553,2.553,0,0,0,.127.774q1.2,3.634,2.42,7.262a1.641,1.641,0,0,1-.153,1.475q-3.939,6.545-7.864,13.1a1.355,1.355,0,0,1-2.476.012q-3.946-6.565-7.887-13.134a1.608,1.608,0,0,1-.145-1.437q1.236-3.645,2.435-7.3a2.408,2.408,0,0,0,.118-.734c.009-2.417.005-4.833.006-7.249a1.365,1.365,0,0,1,1.544-1.545Zm-1.422,25.859.089-.027v-.451q0-3.918,0-7.834a1.344,1.344,0,1,1,2.682-.03c.007,2.639,0,5.278,0,7.917v.494c.094-.1.117-.121.131-.144q2.49-4.145,4.967-8.295a.742.742,0,0,0,.02-.54c-.639-1.962-1.3-3.917-1.94-5.878a.412.412,0,0,0-.461-.348q-4.063.02-8.127,0a.389.389,0,0,0-.443.315c-.645,1.974-1.311,3.942-1.948,5.919a.844.844,0,0,0,.069.609c.743,1.279,1.511,2.542,2.272,3.811Zm-2.564-23.158v5.314h8v-5.314Z"/><path class="a" d="M1256.062,6538.062a20.129,20.129,0,0,1-19.827-16.807,28.361,28.361,0,0,1-.269-3.168,1.328,1.328,0,0,1,1.3-1.486,1.367,1.367,0,0,1,1.375,1.469,17.135,17.135,0,0,0,8.224,14.656,16.769,16.769,0,0,0,10.544,2.594,17.433,17.433,0,0,0,15.283-12.091,17.992,17.992,0,0,0,.825-5.232,1.339,1.339,0,0,1,1.845-1.3,1.36,1.36,0,0,1,.833,1.334,19.325,19.325,0,0,1-2.081,8.8,19.752,19.752,0,0,1-13.695,10.733c-1.418.329-2.893.415-4.342.612Z"/></g></svg>