<svg xmlns="http://www.w3.org/2000/svg" width="38.366" height="42.917" viewBox="0 0 38.366 42.917"><defs><style>.a{fill:#fff;}</style></defs><g transform="translate(-1592.01 -6494.542)"><path class="a" d="M1603.814,6537.459a1.518,1.518,0,0,1-.9-.871,1.258,1.258,0,0,1,1.175-1.645c.709-.018,1.419,0,2.165,0l.482-6.346h-.524c-3.45,0-6.9.006-10.351,0a3.64,3.64,0,0,1-3.726-2.814,4.575,4.575,0,0,1-.117-1.078q-.01-8.675,0-17.349a3.7,3.7,0,0,1,3.911-3.921q9.345,0,18.69.006a.975.975,0,0,0,.766-.316q3.641-3.678,7.3-7.336a3.992,3.992,0,0,1,6.73,1.614,3.9,3.9,0,0,1-1.054,4.042c-.537.549-1.088,1.085-1.631,1.628-.094.094-.179.2-.272.3a11.369,11.369,0,0,1,1.368.256,3.678,3.678,0,0,1,2.549,3.646c.007,3.338,0,6.677,0,10.015,0,2.5.008,5,0,7.5a3.673,3.673,0,0,1-3.013,3.745,5.371,5.371,0,0,1-1,.064q-5.093.007-10.184,0h-.524l.482,6.344h1.788c.9,0,1.419.31,1.571.945.16.668-.128,1.16-.921,1.577Zm8.664-31.408-.057-.1h-6.742q-4.883,0-9.765,0a1.209,1.209,0,0,0-1.376,1.36c0,.335,0,.671,0,1.006q0,8.174,0,16.345c0,.952.423,1.407,1.316,1.407q15.339,0,30.679,0a1.159,1.159,0,0,0,1.309-1.285q.01-8.758,0-17.518a1.187,1.187,0,0,0-1.335-1.314c-.8-.007-1.593-.015-2.389.008a.813.813,0,0,0-.5.216q-4.065,4.026-8.1,8.078a.864.864,0,0,0-.217.576,6.7,6.7,0,0,1-1.008,3.786,6.437,6.437,0,0,1-3.6,2.58,35.832,35.832,0,0,1-7.885,1.672c-1.118.13-1.693-.519-1.533-1.648.014-.1.018-.195.031-.292a36.078,36.078,0,0,1,1.576-7.31,7.319,7.319,0,0,1,1.587-2.917,6.174,6.174,0,0,1,4.775-1.851c.158.006.374.019.468-.071C1610.643,6507.88,1611.558,6506.962,1612.478,6506.051Zm1.976,5.743c1.145-1.162,2.323-2.372,3.517-3.566q4.265-4.265,8.546-8.516a1.518,1.518,0,0,0,.463-1.633,1.479,1.479,0,0,0-2.534-.493q-4.958,4.967-9.909,9.938c-.738.739-1.493,1.462-2.2,2.151Zm-10.511,8.384a31.89,31.89,0,0,0,6.07-1.427,5.214,5.214,0,0,0,1.6-.871,3.726,3.726,0,0,0,.894-4.079,3.8,3.8,0,0,0-3.493-2.431,3.374,3.374,0,0,0-3.427,2.246c-.517,1.465-.873,2.989-1.263,4.5C1604.154,6518.767,1604.075,6519.445,1603.943,6520.178Zm9.174,8.444h-3.852l-.474,6.281h4.8Z"/></g></svg>