<svg xmlns="http://www.w3.org/2000/svg" width="26.837" height="20.73" viewBox="0 0 26.837 20.73"><defs><style>.a{fill:#ccffed;}</style></defs><path class="a" d="M639.588,744.427c1.906-1.716,3.781-3.4,5.657-5.091q2.787-2.508,5.573-5.017a1.263,1.263,0,0,1,1.435-.328A1.278,1.278,0,0,1,653,735.3q0,3.482,0,6.964a1.478,1.478,0,0,1-.52,1.162q-5.976,5.37-11.945,10.748a1.256,1.256,0,0,1-1.925-.014q-5.959-5.363-11.919-10.724a1.477,1.477,0,0,1-.528-1.159c0-2.333,0-4.666,0-7a1.229,1.229,0,0,1,1.665-1.3,1.987,1.987,0,0,1,.553.381q5.432,4.879,10.858,9.767C639.347,744.221,639.455,744.312,639.588,744.427Z" transform="translate(-626.163 -733.883)"/></svg>