<svg xmlns="http://www.w3.org/2000/svg" width="216.953" height="46.053" viewBox="0 0 216.953 46.053"><defs><style>.a{fill:#fff;}</style></defs><g transform="translate(-693.856 -8234.742)"><path class="a" d="M693.856,8246.756H705.95l12.174,31.075.961,2.563H706.991Z"/><path class="a" d="M735.962,8263.575c0-9.852,5.366-17.22,17.54-17.22,11.774,0,17.54,5.767,17.54,17.62H747.415c.241,7.849,3.925,13.055,10.733,13.055a12.616,12.616,0,0,0,11.212-6.247,3.927,3.927,0,0,1,.321,1.682c0,3.845-6.408,8.33-14.417,8.33C741.729,8280.795,735.962,8273.426,735.962,8263.575Zm23.627-1.2c-.24-9.691-2.723-14.417-6.087-14.417-3.844,0-5.927,5.767-6.087,14.417Z"/><path class="a" d="M777.412,8246.756h11.213v3.123a21.017,21.017,0,0,1,12.094-3.523c5.446,0,10.251,2,10.251,5.526a3.926,3.926,0,0,1-4.164,3.844c-4.806,0-4.565-6.326-10.652-6.326a11.056,11.056,0,0,0-7.529,3.363v27.631H777.412Z"/><path class="a" d="M814.8,8246.756h11.213v5.126a14.6,14.6,0,0,1,11.613-5.526c8.65,0,14.977,6.087,14.977,17.14v16.9c-6.247,0-11.212-.881-11.212-6.486v-11.293c0-8.49-2-12.494-7.049-12.494-2.8,0-5.846,1.6-8.329,4.725v25.549H814.8Z"/><path class="a" d="M858.333,8271.424c0-14.577,25.79-7.688,25.79-17.38,0-2.883-1.843-6.087-5.447-6.087-6.888,0-1.922,10.572-10.011,10.572a4.275,4.275,0,0,1-4.4-4.325c0-3.524,3.844-7.849,13.936-7.849,7.368,0,14.977,2.4,14.977,12.654v21.384c-5.446,0-9.851-.64-10.973-4.484-2.963,3.284-7.768,4.886-11.853,4.886C863.379,8280.795,858.333,8277.351,858.333,8271.424Zm23.627,2.323v-13.536c-4.405,2.4-12.174,3.6-12.174,10.172,0,3.685,3.124,5.767,6.408,5.767A8.134,8.134,0,0,0,881.96,8273.747Z"/><path class="a" d="M899.6,8273.987v-39.245h11.213v45.651C904.561,8280.394,899.676,8279.513,899.6,8273.987Z"/><path class="a" d="M731.054,8256.825c-2.13,3.3-7.951,4.966-10.612,18.687,0,0-7.817-14.8-1.255-25.152,2.333-3.68,5.912-5.283,9.708-3.693C732.337,8248.108,733.416,8253.165,731.054,8256.825Z"/></g></svg>