<svg xmlns="http://www.w3.org/2000/svg" width="27.076" height="35.053" viewBox="0 0 27.076 35.053"><defs><style>.a{fill:#ccffed;}</style></defs><path class="a" d="M1631.854,3136.254l-6.649-7.389q-3.274-3.641-6.552-7.279a1.65,1.65,0,0,1-.429-1.874,1.671,1.671,0,0,1,1.708-.975q4.547,0,9.095,0a1.93,1.93,0,0,1,1.518.679q7.014,7.806,14.037,15.6a1.641,1.641,0,0,1-.018,2.515q-7,7.782-14.006,15.566a1.934,1.934,0,0,1-1.514.691c-3.047,0-6.094,0-9.141-.005a1.6,1.6,0,0,1-1.694-2.174,2.6,2.6,0,0,1,.5-.723q6.374-7.095,12.756-14.182C1631.586,3136.569,1631.7,3136.427,1631.854,3136.254Z" transform="translate(-1618.084 -3118.736)"/></svg>